<?xml version="1.0" encoding="iso-8859-1"?>
<!-- Uploaded to: SVG Repo, www.svgrepo.com, Generator: SVG Repo Mixer Tools -->
<svg height="800px" width="800px" version="1.1" id="Layer_1" xmlns="http://www.w3.org/2000/svg" xmlns:xlink="http://www.w3.org/1999/xlink" 
	 viewBox="0 0 512.001 512.001" xml:space="preserve">
<path style="fill:#FF5D3D;" d="M425.818,380.457H198.067V349.11h227.752c30.236,0,54.835-24.599,54.835-54.835v-76.551
	c0-30.236-24.599-54.835-54.835-54.835H198.067v-31.347h227.752c47.521,0,86.182,38.661,86.182,86.182v76.551
	C512,341.796,473.339,380.457,425.818,380.457z"/>
<path style="fill:#EE2712;" d="M0,14.553V411.95c0,47.219,38.279,85.498,85.497,85.498h225.139
	c47.219,0,85.498-38.279,85.498-85.498V14.553H0z"/>
<path style="fill:#FF5D3D;" d="M198.067,14.553H0V411.95c0,47.218,38.279,85.498,85.497,85.498h112.57V14.553z"/>
<path style="fill:#0BAEBC;" d="M300.831,153.237c0,0-109.457-38.712-176.848,28.679c-67.393,67.391-28.681,176.847-28.681,176.847
	s109.457,38.712,176.85-28.679C339.542,262.693,300.831,153.237,300.831,153.237z"/>
<g>
	<path style="fill:#088690;" d="M300.831,153.237c-0.001,0-43.142-15.251-91.928-9.935l-0.001,101.863L300.831,153.237z"/>
	<path style="fill:#088690;" d="M208.901,245.187v-0.022l-63.819,63.818v0.001l144.083,0.001
		c13.064-20.284,19.286-42.583,21.6-63.818L208.901,245.187z"/>
	<path style="fill:#088690;" d="M145.084,164.901c-7.347,4.731-14.432,10.347-21.101,17.016
		c-67.392,67.39-28.682,176.845-28.681,176.846l49.781-49.78L145.084,164.901z"/>
</g>
</svg>